<?xml version="1.0" encoding="UTF-8" standalone="no"?><svg xmlns="http://www.w3.org/2000/svg" xmlns:xlink="http://www.w3.org/1999/xlink" contentScriptType="application/ecmascript" contentStyleType="text/css" height="994px" preserveAspectRatio="none" style="width:1423px;height:994px;background:#EEEBDC;" version="1.1" viewBox="0 0 1423 994" width="1423px" zoomAndPan="magnify"><defs/><g><text fill="#222222" font-family="Comic Sans MS" font-size="14" lengthAdjust="spacingAndGlyphs" textLength="42" x="684.25" y="12.9951">容器图</text><!--MD5=[286ec70da625e46436af5a1df38b147e]
cluster thisSystem--><polygon fill="#FFFFFF" points="198.5,161.2969,198.5,161.5071,208.4286,160.8826,218.3571,161.4902,228.2857,161.6966,238.2143,160.5835,248.1429,161.2192,258.0714,160.8704,268,160.9134,277.9286,161.2287,287.8571,160.6055,297.7857,161.8505,307.7143,160.6666,317.6429,161.0991,327.5714,161.7288,337.5,161.2111,347.4286,161.3651,357.3571,161.2649,367.2857,161.4754,377.2143,161.536,387.1429,161.8826,397.0714,161.9679,407,161.9761,416.9286,161.5515,426.8571,161.7605,436.7857,161.9991,446.7143,160.5757,456.6429,161.9754,466.5714,161.0004,476.5,161.8307,486.4286,160.8019,496.3571,161.2284,506.2857,162.0385,516.2143,161.2481,526.1429,161.4022,536.0714,161.6355,546,161.7131,555.9286,161.293,565.8571,161.5841,575.7857,160.7245,585.7143,161.5813,595.6429,161.8451,605.5714,161.7414,615.5,161.9099,625.4286,160.8138,635.3571,160.6447,645.2857,160.6755,655.2143,161.238,665.1429,161.1003,675.0714,161.9783,685,161.1222,694.9286,160.9538,704.8571,161.5251,714.7857,160.63,724.7143,160.7777,734.6429,161.9458,744.5714,161.7325,754.5,162.0314,764.4286,160.9751,774.3571,161.6161,784.2857,161.8873,794.2143,160.8245,804.1429,161.201,814.0714,161.4229,824,161.9486,833.9286,161.2927,843.8571,161.7594,853.7857,160.7431,863.7143,160.6196,873.6429,161.8005,883.5714,160.5799,893.5,161.2969,894.009,161.2969,893.7066,171.3295,893.2321,181.3621,893.1462,191.3947,893.9588,201.4273,893.2007,211.4599,894.0919,221.4925,892.9473,231.5251,894.1174,241.5577,893.9843,251.5904,893.745,261.623,893.5472,271.6556,894.2266,281.6882,894.1136,291.7208,893.6693,301.7534,893.7682,311.786,893.3697,321.8186,894.2165,331.8512,893.6549,341.8838,893.6726,351.9164,892.8916,361.949,893.0948,371.9817,894.0307,382.0143,893.9298,392.0469,893.4571,402.0795,893.1778,412.1121,893.2811,422.1447,892.8138,432.1773,893.9147,442.2099,894.2396,452.2425,894.0264,462.2751,894.1949,472.3077,893.3633,482.3404,893.5872,492.373,893.1124,502.4056,893.784,512.4382,893.7468,522.4708,894.0524,532.5034,893.2703,542.536,893.3656,552.5686,893.9435,562.6012,894.0673,572.6338,892.9875,582.6664,893.3061,592.699,893.6493,602.7317,892.8892,612.7643,893.5,622.7969,893.5,623.1503,883.5714,623.0549,873.6429,622.6961,863.7143,622.9391,853.7857,623.5256,843.8571,622.484,833.9286,623.1119,824,623.0825,814.0714,622.9126,804.1429,622.9378,794.2143,622.9104,784.2857,622.1727,774.3571,622.3961,764.4286,622.3353,754.5,622.8607,744.5714,622.885,734.6429,622.9586,724.7143,622.5059,714.7857,622.7294,704.8571,622.6767,694.9286,623.3737,685,623.2234,675.0714,622.3113,665.1429,622.724,655.2143,622.2196,645.2857,623.0853,635.3571,623.4054,625.4286,623.3414,615.5,622.3613,605.5714,623.2608,595.6429,622.0541,585.7143,622.997,575.7857,622.4976,565.8571,622.8936,555.9286,623.0372,546,623.269,536.0714,622.077,526.1429,623.2723,516.2143,622.975,506.2857,623.1522,496.3571,623.5447,486.4286,622.8024,476.5,622.9721,466.5714,623.0103,456.6429,622.9941,446.7143,622.7961,436.7857,623.5076,426.8571,622.1871,416.9286,623.3622,407,622.1729,397.0714,622.2566,387.1429,622.8369,377.2143,622.8252,367.2857,622.304,357.3571,623.2106,347.4286,622.9057,337.5,623.5235,327.5714,623.464,317.6429,622.3486,307.7143,622.3989,297.7857,622.6677,287.8571,623.1524,277.9286,623.1999,268,623.098,258.0714,622.4549,248.1429,623.4332,238.2143,623.4307,228.2857,622.7496,218.3571,622.5578,208.4286,622.3955,198.5,622.7969,198.2854,622.7969,198.6374,612.7643,198.4316,602.7317,198.0822,592.699,198.9874,582.6664,198.0411,572.6338,199.0024,562.6012,198.9272,552.5686,198.8719,542.536,199.1925,532.5034,198.2541,522.4708,198.1994,512.4382,199.0189,502.4056,197.9031,492.373,198.266,482.3404,198.6155,472.3077,198.5687,462.2751,198.1415,452.2425,198.457,442.2099,199.2446,432.1773,199.1485,422.1447,197.9037,412.1121,198.5785,402.0795,197.9861,392.0469,198.4737,382.0143,198.793,371.9817,198.9199,361.949,197.8353,351.9164,198.9005,341.8838,198.5084,331.8512,197.9447,321.8186,198.0289,311.786,198.8266,301.7534,198.7499,291.7208,198.4836,281.6882,197.8279,271.6556,199.1581,261.623,198.1882,251.5904,197.9719,241.5577,198.4327,231.5251,199.0897,221.4925,199.1154,211.4599,198.5351,201.4273,198.3488,191.3947,198.6698,181.3621,198.6862,171.3295,198.5,161.2969" style="stroke: #424242; stroke-width: 1.0; stroke-dasharray: 7.0,7.0;"/><text fill="#222222" font-family="Comic Sans MS" font-size="14" lengthAdjust="spacingAndGlyphs" textLength="73" x="509.5" y="176.292">«boundary»</text><text fill="#424242" font-family="Comic Sans MS" font-size="16" font-weight="bold" lengthAdjust="spacingAndGlyphs" textLength="64" x="514" y="194.4453">外贸系统</text><text fill="#424242" font-family="Comic Sans MS" font-size="12" lengthAdjust="spacingAndGlyphs" textLength="48" x="522" y="209.3574">[System]</text><!--MD5=[dec65acb061c0ad7eb693bd0c7daa717]
cluster storage--><polygon fill="#FFFFFF" points="925.5,428.2969,925.5,428.5071,935.3824,427.8826,945.2647,428.4902,955.1471,428.6966,965.0294,427.5835,974.9118,428.2192,984.7941,427.8704,994.6765,427.9134,1004.5588,428.2287,1014.4412,427.6055,1024.3235,428.8505,1034.2059,427.6666,1044.0882,428.0991,1053.9706,428.7288,1063.8529,428.2111,1073.7353,428.3651,1083.6176,428.2649,1093.5,428.2969,1093.6785,428.2969,1093.7391,438.3495,1094.0857,448.4021,1094.1711,458.4548,1094.1793,468.5074,1093.7546,478.56,1093.9636,488.6127,1094.2022,498.6653,1092.7788,508.7179,1094.1785,518.7706,1093.2035,528.8232,1094.0338,538.8758,1093.005,548.9285,1093.4315,558.9811,1094.2416,569.0337,1093.4513,579.0863,1093.6053,589.139,1093.8386,599.1916,1093.9162,609.2442,1093.5,619.2969,1093.5,619.293,1083.6176,619.5841,1073.7353,618.7245,1063.8529,619.5813,1053.9706,619.8451,1044.0882,619.7414,1034.2059,619.9099,1024.3235,618.8138,1014.4412,618.6447,1004.5588,618.6755,994.6765,619.238,984.7941,619.1003,974.9118,619.9783,965.0294,619.1222,955.1471,618.9538,945.2647,619.5251,935.3824,618.63,925.5,619.2969,924.9809,619.2969,926.149,609.2442,925.9357,599.1916,926.2345,589.139,925.1782,579.0863,925.8192,569.0337,926.0904,558.9811,925.0276,548.9285,925.4041,538.8758,925.626,528.8232,926.1518,518.7706,925.4958,508.7179,925.9626,498.6653,924.9462,488.6127,924.8227,478.56,926.0036,468.5074,924.7831,458.4548,926.009,448.4021,925.7066,438.3495,925.5,428.2969" style="stroke: #424242; stroke-width: 1.0; stroke-dasharray: 7.0,7.0;"/><text fill="#222222" font-family="Comic Sans MS" font-size="14" lengthAdjust="spacingAndGlyphs" textLength="73" x="973" y="443.292">«boundary»</text><text fill="#424242" font-family="Comic Sans MS" font-size="16" font-weight="bold" lengthAdjust="spacingAndGlyphs" textLength="32" x="993.5" y="461.4453">存储</text><text fill="#424242" font-family="Comic Sans MS" font-size="12" lengthAdjust="spacingAndGlyphs" textLength="48" x="985.5" y="476.3574">[System]</text><!--MD5=[8f3249185a355cea2ad594664bd49242]
cluster logistics--><polygon fill="#FFFFFF" points="1228.5,447.7969,1228.5,448.0071,1238.4474,447.3826,1248.3947,447.9902,1258.3421,448.1966,1268.2895,447.0835,1278.2368,447.7192,1288.1842,447.3704,1298.1316,447.4134,1308.0789,447.7287,1318.0263,447.1055,1327.9737,448.3505,1337.9211,447.1666,1347.8684,447.5991,1357.8158,448.2288,1367.7632,447.7111,1377.7105,447.8651,1387.6579,447.7649,1397.6053,447.9754,1407.5526,448.036,1417.5,447.7969,1418.0857,447.7969,1418.1711,457.9302,1418.1793,468.0635,1417.7546,478.1969,1417.9636,488.3302,1418.2022,498.4635,1416.7788,508.5969,1418.1785,518.7302,1417.2035,528.8635,1418.0338,538.9969,1417.005,549.1302,1417.4315,559.2635,1418.2416,569.3969,1417.4513,579.5302,1417.6053,589.6635,1417.5,599.7969,1417.5,600.1355,1407.5526,600.2131,1397.6053,599.793,1387.6579,600.0841,1377.7105,599.2245,1367.7632,600.0813,1357.8158,600.3451,1347.8684,600.2414,1337.9211,600.4099,1327.9737,599.3138,1318.0263,599.1447,1308.0789,599.1755,1298.1316,599.738,1288.1842,599.6003,1278.2368,600.4783,1268.2895,599.6222,1258.3421,599.4538,1248.3947,600.0251,1238.4474,599.13,1228.5,599.7969,1227.9809,599.7969,1229.149,589.6635,1228.9357,579.5302,1229.2345,569.3969,1228.1782,559.2635,1228.8192,549.1302,1229.0904,538.9969,1228.0276,528.8635,1228.4041,518.7302,1228.626,508.5969,1229.1518,498.4635,1228.4958,488.3302,1228.9626,478.1969,1227.9462,468.0635,1227.8227,457.9302,1228.5,447.7969" style="stroke: #424242; stroke-width: 1.0; stroke-dasharray: 7.0,7.0;"/><text fill="#222222" font-family="Comic Sans MS" font-size="14" lengthAdjust="spacingAndGlyphs" textLength="73" x="1286.5" y="462.792">«boundary»</text><text fill="#424242" font-family="Comic Sans MS" font-size="16" font-weight="bold" lengthAdjust="spacingAndGlyphs" textLength="32" x="1307" y="480.9453">物流</text><text fill="#424242" font-family="Comic Sans MS" font-size="12" lengthAdjust="spacingAndGlyphs" textLength="48" x="1299" y="495.8574">[System]</text><!--MD5=[d841c4c2f84d4e18d352f800547f43fc]
cluster platform--><polygon fill="#FFFFFF" points="953.5,701.7969,953.5,702.0071,963.3571,701.3826,973.2143,701.9902,983.0714,702.1966,992.9286,701.0835,1002.7857,701.7192,1012.6429,701.3704,1022.5,701.4134,1032.3571,701.7287,1042.2143,701.1055,1052.0714,702.3505,1061.9286,701.1666,1071.7857,701.5991,1081.6429,702.2288,1091.5,701.7111,1101.3571,701.8651,1111.2143,701.7649,1121.0714,701.9754,1130.9286,702.036,1140.7857,702.3826,1150.6429,702.4679,1160.5,702.4761,1170.3571,702.0515,1180.2143,702.2605,1190.0714,702.4991,1199.9286,701.0757,1209.7857,702.4754,1219.6429,701.5004,1229.5,702.3307,1239.3571,701.3019,1249.2143,701.7284,1259.0714,702.5385,1268.9286,701.7481,1278.7857,701.9022,1288.6429,702.1355,1298.5,701.7969,1298.9162,701.7969,1298.4961,711.6487,1298.7872,721.5006,1297.9276,731.3524,1298.7844,741.2043,1299.0482,751.0561,1298.9445,760.908,1299.113,770.7598,1298.0169,780.6117,1297.8478,790.4635,1297.8786,800.3154,1298.4411,810.1672,1298.3035,820.0191,1299.1814,829.8709,1298.3253,839.7228,1298.1569,849.5747,1298.7283,859.4265,1297.8332,869.2784,1297.9809,879.1302,1299.149,888.9821,1298.9357,898.8339,1299.2345,908.6858,1298.1782,918.5376,1298.8192,928.3895,1299.0904,938.2413,1298.0276,948.0932,1298.4041,957.945,1298.5,967.7969,1298.5,967.9229,1288.6429,968.4486,1278.7857,967.7927,1268.9286,968.2594,1259.0714,967.2431,1249.2143,967.1196,1239.3571,968.3005,1229.5,967.0799,1219.6429,968.3058,1209.7857,968.0035,1199.9286,967.529,1190.0714,967.4431,1180.2143,968.2556,1170.3571,967.4975,1160.5,968.3887,1150.6429,967.2441,1140.7857,968.4143,1130.9286,968.2812,1121.0714,968.0418,1111.2143,967.8441,1101.3571,968.5235,1091.5,968.4105,1081.6429,967.9661,1071.7857,968.0651,1061.9286,967.6666,1052.0714,968.5133,1042.2143,967.9517,1032.3571,967.9694,1022.5,967.1885,1012.6429,967.3917,1002.7857,968.3276,992.9286,968.2266,983.0714,967.7539,973.2143,967.4747,963.3571,967.5779,953.5,967.7969,952.8138,967.7969,953.9147,957.945,954.2396,948.0932,954.0264,938.2413,954.1949,928.3895,953.3633,918.5376,953.5872,908.6858,953.1124,898.8339,953.784,888.9821,953.7468,879.1302,954.0524,869.2784,953.2703,859.4265,953.3656,849.5747,953.9435,839.7228,954.0673,829.8709,952.9875,820.0191,953.3061,810.1672,953.6493,800.3154,952.8892,790.4635,953.8534,780.6117,953.758,770.7598,953.3992,760.908,953.6422,751.0561,954.2287,741.2043,953.1871,731.3524,953.815,721.5006,953.7856,711.6487,953.5,701.7969" style="stroke: #424242; stroke-width: 1.0; stroke-dasharray: 7.0,7.0;"/><text fill="#222222" font-family="Comic Sans MS" font-size="14" lengthAdjust="spacingAndGlyphs" textLength="73" x="1089.5" y="716.792">«boundary»</text><text fill="#424242" font-family="Comic Sans MS" font-size="16" font-weight="bold" lengthAdjust="spacingAndGlyphs" textLength="96" x="1078" y="734.9453">商品采集平台</text><text fill="#424242" font-family="Comic Sans MS" font-size="12" lengthAdjust="spacingAndGlyphs" textLength="48" x="1102" y="749.8574">[System]</text><!--MD5=[99ef0ea185b4ef9f52e9c4aee0b2dacc]
entity orderContainer--><polygon fill="#1E88E5" points="222.5,236.2969,222.5,236.5071,232.75,235.8826,243,236.4902,253.25,236.6966,263.5,235.5835,273.75,236.2192,284,235.8704,294.25,235.9134,304.5,236.2287,314.75,235.6055,325,236.8505,335.25,235.6666,345.5,236.0991,355.75,236.7288,366,236.2111,376.25,236.3651,386.5,236.2969,386.4681,236.2969,386.6785,245.918,386.7391,255.5391,387.0857,265.1602,387.1711,274.7813,387.1793,284.4023,386.7546,294.0234,386.9636,303.6445,387.2022,313.2656,385.7788,322.8867,387.1785,332.5078,386.2035,342.1289,386.5,351.75,386.5,352.2838,376.25,351.255,366,351.6815,355.75,352.4916,345.5,351.7013,335.25,351.8553,325,352.0886,314.75,352.1662,304.5,351.7461,294.25,352.0372,284,351.1776,273.75,352.0344,263.5,352.2982,253.25,352.1945,243,352.363,232.75,351.2669,222.5,351.75,221.8478,351.75,221.8786,342.1289,222.4411,332.5078,222.3035,322.8867,223.1814,313.2656,222.3253,303.6445,222.1569,294.0234,222.7283,284.4023,221.8332,274.7813,221.9809,265.1602,223.149,255.5391,222.9357,245.918,222.5,236.2969" style="stroke: #1E88E5; stroke-width: 1.5;"/><text fill="#FFFFFF" font-family="Comic Sans MS" font-size="12" lengthAdjust="spacingAndGlyphs" textLength="64" x="272.5" y="257.4355">«container»</text><text fill="#FFFFFF" font-family="Comic Sans MS" font-size="16" font-weight="bold" lengthAdjust="spacingAndGlyphs" textLength="64" x="272.5" y="275.1172">订单服务</text><text fill="#FFFFFF" font-family="Comic Sans MS" font-size="12" font-style="italic" lengthAdjust="spacingAndGlyphs" textLength="91" x="259" y="290.0293">[Java, springmvc]</text><text fill="#FFFFFF" font-family="Comic Sans MS" font-size="14" lengthAdjust="spacingAndGlyphs" textLength="0" x="306.5" y="305.8545"/><text fill="#FFFFFF" font-family="Comic Sans MS" font-size="14" lengthAdjust="spacingAndGlyphs" textLength="140" x="236.5" y="322.1514">未发货订单自动通知，</text><text fill="#FFFFFF" font-family="Comic Sans MS" font-size="14" lengthAdjust="spacingAndGlyphs" textLength="70" x="269.5" y="338.4482">订单处理等</text><!--MD5=[753c389421a310d09711341c978a7098]
entity goodsContainer--><polygon fill="#1E88E5" points="422,244.2969,422,244.5071,432.0909,243.8826,442.1818,244.4902,452.2727,244.6966,462.3636,243.5835,472.4545,244.2192,482.5455,243.8704,492.6364,243.9134,502.7273,244.2287,512.8182,243.6055,522.9091,244.8505,533,244.2969,532.3697,244.2969,532.8022,254.2125,533.4319,264.1281,532.9142,274.0438,533.0682,283.9594,532.9681,293.875,533.1785,303.7906,533.2391,313.7063,533.5857,323.6219,533.6711,333.5375,533,343.4531,533,344.1324,522.9091,343.7078,512.8182,343.9167,502.7273,344.1554,492.6364,342.7319,482.5455,344.1316,472.4545,343.1566,462.3636,343.9869,452.2727,342.9581,442.1818,343.3846,432.0909,344.1947,422,343.4531,421.9513,343.4531,422.1053,333.5375,422.3386,323.6219,422.4162,313.7063,421.9961,303.7906,422.2872,293.875,421.4276,283.9594,422.2844,274.0438,422.5482,264.1281,422.4445,254.2125,422,244.2969" style="stroke: #1E88E5; stroke-width: 1.5;"/><text fill="#FFFFFF" font-family="Comic Sans MS" font-size="12" lengthAdjust="spacingAndGlyphs" textLength="64" x="445.5" y="265.4355">«container»</text><text fill="#FFFFFF" font-family="Comic Sans MS" font-size="16" font-weight="bold" lengthAdjust="spacingAndGlyphs" textLength="64" x="445.5" y="283.1172">商品服务</text><text fill="#FFFFFF" font-family="Comic Sans MS" font-size="12" font-style="italic" lengthAdjust="spacingAndGlyphs" textLength="91" x="432" y="298.0293">[Java, springmvc]</text><text fill="#FFFFFF" font-family="Comic Sans MS" font-size="14" lengthAdjust="spacingAndGlyphs" textLength="0" x="479.5" y="313.8545"/><text fill="#FFFFFF" font-family="Comic Sans MS" font-size="14" lengthAdjust="spacingAndGlyphs" textLength="56" x="451.5" y="330.1514">爬取商品</text><!--MD5=[7d363b63c955140e463a10e96b1066f7]
entity logisticsContainer--><polygon fill="#1E88E5" points="568,244.2969,568,244.5071,578.0909,243.8826,588.1818,244.4902,598.2727,244.6966,608.3636,243.5835,618.4545,244.2192,628.5455,243.8704,638.6364,243.9134,648.7273,244.2287,658.8182,243.6055,668.9091,244.8505,679,244.2969,678.3697,244.2969,678.8022,254.2125,679.4319,264.1281,678.9142,274.0438,679.0682,283.9594,678.9681,293.875,679.1785,303.7906,679.2391,313.7063,679.5857,323.6219,679.6711,333.5375,679,343.4531,679,344.1324,668.9091,343.7078,658.8182,343.9167,648.7273,344.1554,638.6364,342.7319,628.5455,344.1316,618.4545,343.1566,608.3636,343.9869,598.2727,342.9581,588.1818,343.3846,578.0909,344.1947,568,343.4531,567.9513,343.4531,568.1053,333.5375,568.3386,323.6219,568.4162,313.7063,567.9961,303.7906,568.2872,293.875,567.4276,283.9594,568.2844,274.0438,568.5482,264.1281,568.4445,254.2125,568,244.2969" style="stroke: #1E88E5; stroke-width: 1.5;"/><text fill="#FFFFFF" font-family="Comic Sans MS" font-size="12" lengthAdjust="spacingAndGlyphs" textLength="64" x="591.5" y="265.4355">«container»</text><text fill="#FFFFFF" font-family="Comic Sans MS" font-size="16" font-weight="bold" lengthAdjust="spacingAndGlyphs" textLength="64" x="591.5" y="283.1172">物流服务</text><text fill="#FFFFFF" font-family="Comic Sans MS" font-size="12" font-style="italic" lengthAdjust="spacingAndGlyphs" textLength="91" x="578" y="298.0293">[Java, springmvc]</text><text fill="#FFFFFF" font-family="Comic Sans MS" font-size="14" lengthAdjust="spacingAndGlyphs" textLength="0" x="625.5" y="313.8545"/><text fill="#FFFFFF" font-family="Comic Sans MS" font-size="14" lengthAdjust="spacingAndGlyphs" textLength="56" x="597.5" y="330.1514">物流管理</text><!--MD5=[8dbfa5f23d7d6fa5ac28471144afbd79]
entity spiderContainer--><polygon fill="#1E88E5" points="541.5,499.7969,541.5,500.0071,551.75,499.3826,562,499.9902,572.25,500.1966,582.5,499.0835,592.75,499.7192,603,499.3704,613.25,499.4134,623.5,499.7287,633.75,499.1055,644,500.3505,654.25,499.1666,664.5,499.5991,674.75,500.2288,685,499.7111,695.25,499.8651,705.5,499.7969,705.4681,499.7969,705.6785,509.7125,705.7391,519.6281,706.0857,529.5438,706.1711,539.4594,706.1793,549.375,705.7546,559.2906,705.9636,569.2063,706.2022,579.1219,704.7788,589.0375,705.5,598.9531,705.5,599.6316,695.25,598.6566,685,599.4869,674.75,598.4581,664.5,598.8846,654.25,599.6947,644,598.9044,633.75,599.0584,623.5,599.2918,613.25,599.3694,603,598.9492,592.75,599.2403,582.5,598.3807,572.25,599.2375,562,599.5013,551.75,599.3977,541.5,598.9531,542.113,598.9531,541.0169,589.0375,540.8478,579.1219,540.8786,569.2063,541.4411,559.2906,541.3035,549.375,542.1814,539.4594,541.3253,529.5438,541.1569,519.6281,541.7283,509.7125,541.5,499.7969" style="stroke: #1E88E5; stroke-width: 1.5;"/><text fill="#FFFFFF" font-family="Comic Sans MS" font-size="12" lengthAdjust="spacingAndGlyphs" textLength="64" x="591.5" y="520.9355">«container»</text><text fill="#FFFFFF" font-family="Comic Sans MS" font-size="16" font-weight="bold" lengthAdjust="spacingAndGlyphs" textLength="64" x="591.5" y="538.6172">爬虫服务</text><text fill="#FFFFFF" font-family="Comic Sans MS" font-size="12" font-style="italic" lengthAdjust="spacingAndGlyphs" textLength="45" x="601" y="553.5293">[Python]</text><text fill="#FFFFFF" font-family="Comic Sans MS" font-size="14" lengthAdjust="spacingAndGlyphs" textLength="0" x="625.5" y="569.3545"/><text fill="#FFFFFF" font-family="Comic Sans MS" font-size="14" lengthAdjust="spacingAndGlyphs" textLength="140" x="555.5" y="585.6514">爬取电商平台的产品等</text><!--MD5=[a9e47317f151fe0df37683ad49cc11af]
entity notifyRobotContainer--><polygon fill="#1E88E5" points="714.5,236.2969,714.5,236.5071,724.2143,235.8826,733.9286,236.4902,743.6429,236.6966,753.3571,235.5835,763.0714,236.2192,772.7857,235.8704,782.5,235.9134,792.2143,236.2287,801.9286,235.6055,811.6429,236.8505,821.3571,235.6666,831.0714,236.0991,840.7857,236.7288,850.5,236.2969,850.4142,236.2969,850.5682,245.918,850.4681,255.5391,850.6785,265.1602,850.7391,274.7813,851.0857,284.4023,851.1711,294.0234,851.1793,303.6445,850.7546,313.2656,850.9636,322.8867,851.2022,332.5078,849.7788,342.1289,850.5,351.75,850.5,352.4285,840.7857,351.4535,831.0714,352.2838,821.3571,351.255,811.6429,351.6815,801.9286,352.4916,792.2143,351.7013,782.5,351.8553,772.7857,352.0886,763.0714,352.1662,753.3571,351.7461,743.6429,352.0372,733.9286,351.1776,724.2143,352.0344,714.5,351.75,715.0482,351.75,714.9445,342.1289,715.113,332.5078,714.0169,322.8867,713.8478,313.2656,713.8786,303.6445,714.4411,294.0234,714.3035,284.4023,715.1814,274.7813,714.3253,265.1602,714.1569,255.5391,714.7283,245.918,714.5,236.2969" style="stroke: #1E88E5; stroke-width: 1.5;"/><text fill="#FFFFFF" font-family="Comic Sans MS" font-size="12" lengthAdjust="spacingAndGlyphs" textLength="64" x="750.5" y="257.4355">«container»</text><text fill="#FFFFFF" font-family="Comic Sans MS" font-size="16" font-weight="bold" lengthAdjust="spacingAndGlyphs" textLength="80" x="742.5" y="275.1172">通知机器人</text><text fill="#FFFFFF" font-family="Comic Sans MS" font-size="12" font-style="italic" lengthAdjust="spacingAndGlyphs" textLength="45" x="760" y="290.0293">[Python]</text><text fill="#FFFFFF" font-family="Comic Sans MS" font-size="14" lengthAdjust="spacingAndGlyphs" textLength="0" x="784.5" y="305.8545"/><text fill="#FFFFFF" font-family="Comic Sans MS" font-size="14" lengthAdjust="spacingAndGlyphs" textLength="112" x="728.5" y="322.1514">通知推送机器人，</text><text fill="#FFFFFF" font-family="Comic Sans MS" font-size="14" lengthAdjust="spacingAndGlyphs" textLength="98" x="733.5" y="338.4482">推送消息到用户</text><!--MD5=[f50ff5e4cd64f259303fc83dba1819fc]
entity database--><path d="M941.5,505.2969 L941.5,505.2969 L941.5446,505.3789 L943.537,503.9789 L945.7911,503.0598 L947.9599,501.9842 L949.8485,500.3934 L952.125,499.5156 L952.1194,499.4815 L954.2726,498.9731 L956.4538,498.6365 L958.6545,498.4193 L960.788,497.7905 L963.0156,497.7383 L963.039,497.9832 L965.4859,497.2211 L968.001,497.1742 L970.5245,497.2145 L972.9995,496.7472 L975.5,496.5469 L975.5018,496.5772 L977.9961,496.3882 L980.4983,496.337 L982.9968,496.2194 L985.5025,496.2286 L987.9844,495.8242 L987.9945,496.1223 L990.1728,496.0517 L992.3445,495.7889 L994.5258,495.8075 L996.7075,495.8393 L998.875,495.4531 L998.8703,495.1326 L1001.0044,495.7234 L1003.1231,495.2589 L1005.2535,495.5966 L1007.3718,495.1081 L1009.5,495.2969 L1009.5,495.2969 L1009.4996,495.2664 L1011.6298,495.6577 L1013.7497,495.3377 L1015.8757,495.4374 L1018.0022,495.5724 L1020.125,495.4531 L1020.1313,495.638 L1022.3031,495.5256 L1024.4856,495.7291 L1026.6507,495.4215 L1028.8418,495.8763 L1031.0156,495.8242 L1031.0297,496.0675 L1033.5239,496.166 L1036.0251,496.3853 L1038.4938,496.0435 L1040.9864,496.113 L1043.5,496.5469 L1043.4738,496.2719 L1045.9944,496.7591 L1048.4855,496.9365 L1051.0194,497.5632 L1053.4801,497.4227 L1055.9844,497.7383 L1055.9598,497.5878 L1058.1788,498.1939 L1060.2929,498.1567 L1062.4816,498.577 L1064.7433,499.4448 L1066.875,499.5156 L1066.9675,499.6857 L1069.156,500.9586 L1071.0566,501.7025 L1073.3178,503.109 L1075.5004,504.3711 L1077.5,505.2969 L1076.2403,505.2969 L1077.2444,515.092 L1077.836,524.8872 L1079.238,534.6823 L1077.4888,544.4774 L1078.7335,554.2726 L1076.0232,564.0677 L1075.694,573.8628 L1078.843,583.658 L1077.5,593.4531 L1077.5,593.4531 L1077.3477,593.1732 L1075.4831,594.8081 L1073.2939,595.8463 L1071.0681,596.8173 L1068.9249,597.94 L1066.875,599.2344 L1066.9078,599.4356 L1064.6754,599.4585 L1062.5611,600.2049 L1060.3011,600.0583 L1058.2067,600.9271 L1055.9844,601.0117 L1056.0048,601.226 L1053.4978,601.3584 L1050.9926,601.5092 L1048.5244,602.048 L1046.0228,602.2363 L1043.5,602.2031 L1043.5043,602.2782 L1041.01,602.4667 L1038.5029,602.4344 L1036.0278,602.9546 L1033.5165,602.85 L1031.0156,602.9258 L1031.0182,603.0024 L1028.8283,602.7298 L1026.6532,602.8942 L1024.4893,603.3842 L1022.3096,603.4136 L1020.125,603.2969 L1020.1247,603.2778 L1017.9979,603.185 L1015.8736,603.2621 L1013.7455,603.0857 L1011.6277,603.6062 L1009.5,603.4531 L1009.5,603.4531 L1009.5048,603.7818 L1007.3784,603.6558 L1005.2545,603.6995 L1003.1241,603.2986 L1001.0006,603.3669 L998.875,603.2969 L998.8691,603.1247 L996.7012,603.3488 L994.5225,603.258 L992.349,603.3196 L990.159,602.898 L987.9844,602.9258 L987.9809,602.8661 L985.4989,602.978 L983.0052,602.8884 L980.4806,602.2648 L977.9919,602.2616 L975.5,602.2031 L975.5063,602.2692 L972.9773,601.6946 L970.5212,601.8829 L968.0203,601.6024 L965.5082,601.2054 L963.0156,601.0117 L963.0258,601.0741 L960.8897,600.9759 L958.637,600.1635 L956.5038,600.0835 L954.3236,599.7151 L952.125,599.2344 L952.1496,599.2796 L950.0299,598.1331 L947.8991,596.9662 L945.6174,595.522 L943.5399,594.4529 L941.5,593.4531 L940.2692,593.4531 L941.6702,583.658 L941.735,573.8628 L941.9313,564.0677 L940.7241,554.2726 L941.32,544.4774 L941.1794,534.6823 L943.0383,524.8872 L942.6375,515.092 L941.5,505.2969 " fill="#1E88E5" style="stroke: #1E88E5; stroke-width: 1.5;"/><path d="M941.5,505.2969 L941.5,505.2969 L941.5446,505.3789 L943.537,506.2914 L945.7911,507.6848 L947.9599,508.9217 L949.8485,509.6434 L952.125,511.0781 L952.1194,511.044 L954.2726,511.2465 L956.4538,511.6208 L958.6545,512.1146 L960.788,512.1967 L963.0156,512.8555 L963.039,513.1004 L965.4859,512.8149 L968.001,513.2445 L970.5245,513.7614 L972.9995,513.7706 L975.5,514.0469 L975.5018,514.0772 L977.9961,514.1772 L980.4983,514.4151 L982.9968,514.5866 L985.5025,514.8849 L987.9844,514.7695 L987.9945,515.0676 L990.1728,515.1455 L992.3445,515.0311 L994.5258,515.1981 L996.7075,515.3783 L998.875,515.1406 L998.8703,514.8201 L1001.0044,515.4734 L1003.1231,515.0714 L1005.2535,515.4716 L1007.3718,515.0456 L1009.5,515.2969 L1009.5,515.2969 L1009.4996,515.2664 L1011.6298,515.5952 L1013.7497,515.2127 L1015.8757,515.2499 L1018.0022,515.3224 L1020.125,515.1406 L1020.1313,515.3255 L1022.3031,515.0647 L1024.4856,515.1198 L1026.6507,514.6637 L1028.8418,514.9701 L1031.0156,514.7695 L1031.0297,515.0128 L1033.5239,514.8222 L1036.0251,514.7525 L1038.4938,514.1216 L1040.9864,513.902 L1043.5,514.0469 L1043.4738,513.7719 L1045.9944,513.7825 L1048.4855,513.4834 L1051.0194,513.6335 L1053.4801,513.0165 L1055.9844,512.8555 L1055.9598,512.705 L1058.1788,512.6001 L1060.2929,511.852 L1062.4816,511.5614 L1064.7433,511.7183 L1066.875,511.0781 L1066.9675,511.2482 L1069.156,510.2086 L1071.0566,508.64 L1073.3178,507.734 L1075.5004,506.6836 L1077.5,505.2969 " fill="none" style="stroke: #1E88E5; stroke-width: 1.5;"/><text fill="#FFFFFF" font-family="Comic Sans MS" font-size="12" lengthAdjust="spacingAndGlyphs" textLength="64" x="977.5" y="530.4355">«container»</text><text fill="#FFFFFF" font-family="Comic Sans MS" font-size="16" font-weight="bold" lengthAdjust="spacingAndGlyphs" textLength="48" x="985.5" y="548.1172">数据库</text><text fill="#FFFFFF" font-family="Comic Sans MS" font-size="12" font-style="italic" lengthAdjust="spacingAndGlyphs" textLength="86" x="966.5" y="563.0293">[SQL Database]</text><text fill="#FFFFFF" font-family="Comic Sans MS" font-size="14" lengthAdjust="spacingAndGlyphs" textLength="0" x="1011.5" y="578.8545"/><text fill="#FFFFFF" font-family="Comic Sans MS" font-size="14" lengthAdjust="spacingAndGlyphs" textLength="112" x="955.5" y="595.1514">存储系统中的信息</text><!--MD5=[e8f6fc5de1b15b00b7870e2124da5e48]
entity yw56--><polygon fill="#757575" points="1272,522.7969,1272,523.0071,1282.0833,522.3826,1292.1667,522.9902,1302.25,523.1966,1312.3333,522.0835,1322.4167,522.7192,1332.5,522.3704,1342.5833,522.4134,1352.6667,522.7287,1362.75,522.1055,1372.8333,523.3505,1382.9167,522.1666,1393,522.7969,1392.8022,522.7969,1393.4319,533.3156,1392.9142,543.8344,1393.0682,554.3531,1392.9681,564.8719,1393,575.3906,1393,575.5692,1382.9167,575.6298,1372.8333,575.9763,1362.75,576.0617,1352.6667,576.0699,1342.5833,575.6453,1332.5,575.8542,1322.4167,576.0929,1312.3333,574.6694,1302.25,576.0691,1292.1667,575.0941,1282.0833,575.9244,1272,575.3906,1271.505,575.3906,1271.9315,564.8719,1272.7416,554.3531,1271.9513,543.8344,1272.1053,533.3156,1272,522.7969" style="stroke: #616161; stroke-width: 1.5;"/><text fill="#FFFFFF" font-family="Comic Sans MS" font-size="12" lengthAdjust="spacingAndGlyphs" textLength="101" x="1282" y="543.9355">«external_system»</text><text fill="#FFFFFF" font-family="Comic Sans MS" font-size="16" font-weight="bold" lengthAdjust="spacingAndGlyphs" textLength="64" x="1300.5" y="561.6172">燕文物流</text><!--MD5=[22adc0adba51f02e29f4bdb15cab381b]
entity ali1688--><polygon fill="#757575" points="997,776.7969,997,777.0071,1007.0833,776.3826,1017.1667,776.9902,1027.25,777.1966,1037.3333,776.0835,1047.4167,776.7192,1057.5,776.3704,1067.5833,776.4134,1077.6667,776.7287,1087.75,776.1055,1097.8333,777.3505,1107.9167,776.1666,1118,776.7969,1117.8022,776.7969,1118.4319,787.3156,1117.9142,797.8344,1118.0682,808.3531,1117.9681,818.8719,1118,829.3906,1118,829.5692,1107.9167,829.6298,1097.8333,829.9763,1087.75,830.0617,1077.6667,830.0699,1067.5833,829.6453,1057.5,829.8542,1047.4167,830.0929,1037.3333,828.6694,1027.25,830.0691,1017.1667,829.0941,1007.0833,829.9244,997,829.3906,996.505,829.3906,996.9315,818.8719,997.7416,808.3531,996.9513,797.8344,997.1053,787.3156,997,776.7969" style="stroke: #616161; stroke-width: 1.5;"/><text fill="#FFFFFF" font-family="Comic Sans MS" font-size="12" lengthAdjust="spacingAndGlyphs" textLength="101" x="1007" y="797.9355">«external_system»</text><text fill="#FFFFFF" font-family="Comic Sans MS" font-size="16" font-weight="bold" lengthAdjust="spacingAndGlyphs" textLength="100" x="1007.5" y="815.6172">1688电商平台</text><!--MD5=[e9b34e5169f87cf42fbf1086e255b509]
entity taobao--><polygon fill="#757575" points="1153,776.7969,1153,777.0071,1163.0833,776.3826,1173.1667,776.9902,1183.25,777.1966,1193.3333,776.0835,1203.4167,776.7192,1213.5,776.3704,1223.5833,776.4134,1233.6667,776.7287,1243.75,776.1055,1253.8333,777.3505,1263.9167,776.1666,1274,776.7969,1273.8022,776.7969,1274.4319,787.3156,1273.9142,797.8344,1274.0682,808.3531,1273.9681,818.8719,1274,829.3906,1274,829.5692,1263.9167,829.6298,1253.8333,829.9763,1243.75,830.0617,1233.6667,830.0699,1223.5833,829.6453,1213.5,829.8542,1203.4167,830.0929,1193.3333,828.6694,1183.25,830.0691,1173.1667,829.0941,1163.0833,829.9244,1153,829.3906,1152.505,829.3906,1152.9315,818.8719,1153.7416,808.3531,1152.9513,797.8344,1153.1053,787.3156,1153,776.7969" style="stroke: #616161; stroke-width: 1.5;"/><text fill="#FFFFFF" font-family="Comic Sans MS" font-size="12" lengthAdjust="spacingAndGlyphs" textLength="101" x="1163" y="797.9355">«external_system»</text><text fill="#FFFFFF" font-family="Comic Sans MS" font-size="16" font-weight="bold" lengthAdjust="spacingAndGlyphs" textLength="96" x="1165.5" y="815.6172">淘宝电商平台</text><!--MD5=[0da2d375b55f8d43e890d28fe71834d6]
entity pdd--><polygon fill="#757575" points="996.5,890.7969,996.5,891.0071,1006.6538,890.3826,1016.8077,890.9902,1026.9615,891.1966,1037.1154,890.0835,1047.2692,890.7192,1057.4231,890.3704,1067.5769,890.4134,1077.7308,890.7287,1087.8846,890.1055,1098.0385,891.3505,1108.1923,890.1666,1118.3462,890.5991,1128.5,890.7969,1128.9319,890.7969,1128.4142,901.3156,1128.5682,911.8344,1128.4681,922.3531,1128.6785,932.8719,1128.5,943.3906,1128.5,943.6298,1118.3462,943.9763,1108.1923,944.0617,1098.0385,944.0699,1087.8846,943.6453,1077.7308,943.8542,1067.5769,944.0929,1057.4231,942.6694,1047.2692,944.0691,1037.1154,943.0941,1026.9615,943.9244,1016.8077,942.8956,1006.6538,943.3221,996.5,943.3906,997.2416,943.3906,996.4513,932.8719,996.6053,922.3531,996.8386,911.8344,996.9162,901.3156,996.5,890.7969" style="stroke: #616161; stroke-width: 1.5;"/><text fill="#FFFFFF" font-family="Comic Sans MS" font-size="12" lengthAdjust="spacingAndGlyphs" textLength="101" x="1012" y="911.9355">«external_system»</text><text fill="#FFFFFF" font-family="Comic Sans MS" font-size="16" font-weight="bold" lengthAdjust="spacingAndGlyphs" textLength="112" x="1006.5" y="929.6172">拼多多电商平台</text><!--MD5=[8fc3522a43f8c7199df5e09e5bb0188e]
entity user--><polygon fill="#1565C0" points="588.5,23.2969,588.5,23.5071,598.5,22.8826,608.5,23.4902,618.5,23.6966,628.5,22.5835,638.5,23.2192,648.5,22.8704,658.5,23.2969,658.1165,23.2969,658.4318,33.8156,657.8086,44.3344,659.0536,54.8531,657.8697,65.3719,658.5,75.8906,658.5,75.6929,648.5,76.3226,638.5,75.8048,628.5,75.9589,618.5,75.8587,608.5,76.0692,598.5,76.1298,588.5,75.8906,589.0857,75.8906,589.1711,65.3719,589.1793,54.8531,588.7546,44.3344,588.9636,33.8156,588.5,23.2969" style="stroke: #0D47A1; stroke-width: 1.5;"/><text fill="#FFFFFF" font-family="Comic Sans MS" font-size="12" lengthAdjust="spacingAndGlyphs" textLength="50" x="598.5" y="44.4355">«person»</text><text fill="#FFFFFF" font-family="Comic Sans MS" font-size="16" font-weight="bold" lengthAdjust="spacingAndGlyphs" textLength="32" x="607.5" y="62.1172">用户</text><!--MD5=[173d9e4560cdeab244cb060232f8bd05]
entity vova--><polygon fill="#757575" points="7,267.2969,7,267.5071,16.7692,266.8826,26.5385,267.4902,36.3077,267.6966,46.0769,266.5835,55.8462,267.2192,65.6154,266.8704,75.3846,266.9134,85.1538,267.2287,94.9231,266.6055,104.6923,267.8505,114.4615,266.6666,124.2308,267.0991,134,267.2969,134.4319,267.2969,133.9142,277.8156,134.0682,288.3344,133.9681,298.8531,134.1785,309.3719,134,319.8906,134,320.1298,124.2308,320.4763,114.4615,320.5617,104.6923,320.5699,94.9231,320.1453,85.1538,320.3542,75.3846,320.5929,65.6154,319.1694,55.8462,320.5691,46.0769,319.5941,36.3077,320.4244,26.5385,319.3956,16.7692,319.8221,7,319.8906,7.7416,319.8906,6.9513,309.3719,7.1053,298.8531,7.3386,288.3344,7.4162,277.8156,7,267.2969" style="stroke: #616161; stroke-width: 1.5;"/><text fill="#FFFFFF" font-family="Comic Sans MS" font-size="12" lengthAdjust="spacingAndGlyphs" textLength="101" x="20" y="288.4355">«external_system»</text><text fill="#FFFFFF" font-family="Comic Sans MS" font-size="16" font-weight="bold" lengthAdjust="spacingAndGlyphs" textLength="107" x="17" y="306.1172">VOVA电商平台</text><!--MD5=[83cbb69f532535b0396e99b5f6f6f40e]
link goodsContainer to spiderContainer--><path d="M505.48,343.3769 L505.7228,343.5167 L510.1348,352.0147 L515.9704,361.3326 L521.3424,370.3834 L525.1899,378.5563 L531.0579,387.8928 L535.7884,396.5742 L540.9716,405.5164 L546.4695,414.6398 L550.8829,423.1386 L557.455,432.8806 L561.2206,441.0063 L566.8539,450.2076 L572.715,459.5402 L577.2503,468.1092 L582.5618,477.1252 L587.5796,485.9721 L592.75,494.9069 " fill="none" style="stroke: #616161; stroke-width: 1.0;"/><polygon fill="#616161" points="595.37,499.4569,595.4397,499.4643,595.0252,497.4835,595.0191,495.546,594.88,493.5945,594.3036,491.5966,594.3326,489.6628,594.3076,489.6561,593.9026,490.7189,593.6238,491.8155,593.4327,492.9355,592.9394,493.9747,592.8693,495.1271,592.9171,495.3054,591.7221,494.6315,590.6665,494.4782,589.628,494.3883,588.4905,493.9289,587.405,493.6639,587.4184,493.6823,588.9917,494.8139,590.626,496.0292,592.2309,497.2041,593.8918,498.4562,595.37,499.4569" style="stroke: #616161; stroke-width: 1.0;"/><text fill="#616161" font-family="Comic Sans MS" font-size="13" font-weight="bold" lengthAdjust="spacingAndGlyphs" textLength="78" x="542.5" y="394.3638">获取爬虫数据</text><text fill="#616161" font-family="Comic Sans MS" font-size="12" font-style="italic" lengthAdjust="spacingAndGlyphs" textLength="44" x="559.5" y="408.5684">[HTTPS]</text><!--MD5=[0c65696a8ae1db97c34895c8f5a65c78]
link user to orderContainer--><path d="M588.37,59.3169 L588.3958,59.4067 L584.5442,60.2228 L580.8436,61.5653 L577.0939,62.7364 L573.1824,63.3438 L569.4948,64.7315 L569.4846,64.6985 L567.3458,65.1978 L565.2585,65.8635 L563.2069,66.6448 L561.0321,67.0276 L559.03,67.9685 L559.1063,68.2024 L556.7372,68.4219 L554.591,69.3244 L552.472,70.3102 L550.1948,70.8112 L548.0008,71.5672 L548.0107,71.5959 L545.6955,72.3471 L543.4253,73.2289 L541.1335,74.0477 L538.883,74.9867 L536.4975,75.5339 L536.5998,75.8141 L534.2237,76.6858 L531.7815,77.3767 L529.436,78.3322 L527.0949,79.3001 L524.6104,79.8752 L524.4946,79.5763 L522.2833,81.1008 L519.6906,81.6412 L517.3879,82.9297 L514.7865,83.4478 L512.4299,84.5974 L512.4183,84.5692 L510.0789,85.924 L507.4682,86.6211 L505.0176,87.7063 L502.5804,88.8241 L500.0463,89.7069 L500.1208,89.8762 L497.5462,90.8059 L495.0991,92.025 L492.4458,92.776 L490.1,94.2252 L487.5497,95.2101 L487.6536,95.4305 L485.1302,96.5695 L482.6583,97.8179 L479.9467,98.558 L477.4108,99.6707 L475.0306,101.1136 L474.9058,100.8672 L472.5286,102.3522 L470.0106,103.5596 L467.6968,105.1697 L465.0345,106.0923 L462.5793,107.4236 L462.5062,107.2898 L460.1694,108.8572 L457.5198,109.8527 L455.0927,111.2549 L452.8831,113.055 L450.2861,114.1466 L450.3849,114.3131 L448.0436,115.8558 L445.3952,116.8805 L443.1315,118.554 L440.784,120.0862 L438.2412,121.289 L438.1272,121.1127 L435.8769,122.7669 L433.5892,124.3633 L431.3748,126.0732 L428.8753,127.342 L426.5351,128.8572 L426.654,129.0249 L424.1372,130.2566 L421.85,131.8119 L419.8983,133.8401 L417.3289,134.9977 L415.2579,136.8577 L415.3975,137.0357 L413.163,138.6178 L410.8812,140.1397 L408.7061,141.7975 L406.7774,143.7695 L404.5,145.2969 L404.4117,145.1974 L402.5901,147.3442 L400.1679,148.8144 L398.4286,151.0539 L396.3048,152.8602 L394.0774,154.5499 L394.1547,154.6266 L392.1014,156.5703 L390.3247,158.7887 L388.2982,160.759 L386.1671,162.6256 L384.1228,164.5783 L384.2118,164.6575 L382.1862,166.6666 L380.574,169.0437 L378.4943,171.0046 L376.6068,173.1367 L374.6562,175.2126 L374.446,175.0425 L372.7245,177.3134 L371.2561,179.7892 L369.4295,181.9751 L367.4744,184.057 L365.6975,186.2831 L365.5826,186.1977 L363.9332,188.4925 L362.0804,190.6361 L360.7869,193.1955 L359.2165,195.5491 L357.2666,197.6204 L357.4592,197.7532 L355.9443,200.0826 L354.0633,202.1597 L352.5686,204.5031 L350.8182,206.6702 L349.3834,209.0548 L349.4896,209.1232 L348.0125,211.3866 L346.6637,213.7326 L344.9083,215.8168 L343.4808,218.1121 L342.0679,220.4169 L342.2366,220.5189 L340.9381,222.7714 L339.1819,224.7469 L337.9574,227.0443 L336.7423,229.3472 L335.34,231.5369 " fill="none" style="stroke: #616161; stroke-width: 1.0;"/><polygon fill="#616161" points="332.64,236.1769,332.6811,236.2336,334.1549,234.9103,335.8695,233.9198,337.5057,232.8208,338.884,231.3656,340.6193,230.4036,340.6127,230.3785,339.4893,230.5561,338.3994,230.8599,337.3327,231.2515,336.1859,231.3406,335.1514,231.8533,335.3297,231.9006,334.6583,230.7059,334.5077,229.6493,334.4207,228.6095,333.9639,227.4717,333.7016,226.3854,333.7242,226.3879,333.4787,228.3425,333.3361,230.3084,333.1439,232.2689,333.0464,234.2396,332.64,236.1769" style="stroke: #616161; stroke-width: 1.0;"/><text fill="#616161" font-family="Comic Sans MS" font-size="13" font-weight="bold" lengthAdjust="spacingAndGlyphs" textLength="52" x="464.5" y="119.3638">订单处理</text><text fill="#616161" font-family="Comic Sans MS" font-size="12" font-style="italic" lengthAdjust="spacingAndGlyphs" textLength="44" x="468.5" y="133.5684">[HTTPS]</text><!--MD5=[a744e2c28c1608c6c5197b1571b4867b]
link user to logisticsContainer--><path d="M621.82,76.4869 L621.9133,76.4917 L621.4839,79.4306 L621.6013,82.3978 L621.5406,85.3558 L620.8944,88.2836 L621.0587,91.2531 L621.0242,91.2518 L620.7576,94.2548 L620.6649,97.2643 L620.6932,100.2783 L620.3047,103.2767 L620.5,106.2969 L620.746,106.302 L620.1494,109.6834 L620.2711,113.0798 L620.4804,116.478 L620.1798,119.8655 L620.1474,123.2587 L620.1777,123.259 L620.0985,126.7183 L620.1574,130.1791 L620.1497,133.6391 L620.269,137.1005 L619.9741,140.5577 L620.2723,140.5585 L620.2956,147.4986 L620.1266,154.4382 L620.2392,161.3785 L620.3649,168.3189 L620.0725,175.2581 L619.752,175.253 L620.4815,181.9275 L620.1556,188.5849 L620.632,195.2554 L620.2823,201.9125 L620.6097,208.5805 L620.5793,208.5797 L621.0972,214.6144 L620.9042,220.6305 L621.1307,226.6575 L621.3924,232.6855 L621.4,238.7069 " fill="none" style="stroke: #616161; stroke-width: 1.0;"/><polygon fill="#616161" points="621.57,244.0969,621.6349,244.1233,622.1852,242.2205,623.1158,240.4727,623.9226,238.6744,624.322,236.7102,625.2853,234.9757,625.2664,234.9579,624.4072,235.7031,623.6432,236.5376,622.9453,237.4343,622.0194,238.1168,621.4129,239.0993,621.5393,239.2339,620.4444,238.1717,619.7183,237.5023,619.0373,236.8809,618.0944,235.9806,617.2893,235.227,617.3097,235.2369,618.1358,236.9963,619.0551,238.8008,619.9295,240.5836,620.8897,242.4077,621.57,244.0969" style="stroke: #616161; stroke-width: 1.0;"/><text fill="#616161" font-family="Comic Sans MS" font-size="13" font-weight="bold" lengthAdjust="spacingAndGlyphs" textLength="117" x="621.5" y="119.3638">物流查询，成本预估</text><text fill="#616161" font-family="Comic Sans MS" font-size="12" font-style="italic" lengthAdjust="spacingAndGlyphs" textLength="44" x="658" y="133.5684">[HTTPS]</text><!--MD5=[a25ead466090e3d96d290d147b839e74]
reverse link notifyRobotContainer to user--><path d="M783.25,230.9769 L783.3431,230.9848 L782.8061,227.9109 L782.8146,224.8836 L782.6456,221.8411 L781.8922,218.7487 L781.9476,215.7253 L781.9134,215.7209 L781.3452,212.5108 L780.9497,209.3231 L780.6743,206.1509 L779.9852,202.9251 L779.8755,199.7745 L780.1175,199.8187 L779.0037,196.4547 L778.5967,193.2195 L778.2758,190.0001 L777.4533,186.6892 L776.8946,183.4265 L776.9241,183.4337 L776.0752,180.1344 L775.3603,176.868 L774.5808,173.5858 L773.9248,170.3337 L772.8663,166.9831 L773.1502,167.0743 L772.1107,163.8281 L770.8881,160.5231 L769.9335,157.3042 L768.9916,154.0893 L767.6515,150.7465 L767.3555,150.6234 L766.6219,147.7167 L764.9138,144.4047 L763.9465,141.4009 L762.2163,138.0797 L761.1114,135.0186 L761.0846,135.0042 L759.801,132.191 L757.8906,129.0415 L756.3501,126.0904 L754.8407,123.156 L753.1072,120.1014 L753.259,120.2071 L751.1843,117.3395 L749.3691,114.6525 L747.1341,111.6734 L745.5252,109.13 L743.5,106.2969 L743.6798,106.4613 L741.9294,104.5543 L740.2682,102.7288 L738.1924,100.524 L736.4206,98.5973 L734.9181,96.917 L734.739,96.7067 L732.9514,95.2361 L730.962,93.5285 L729.2653,92.1645 L727.0689,90.2139 L725.1695,88.612 L725.0833,88.4863 L723.1023,87.2376 L720.7526,85.4515 L718.6652,84.0476 L716.8343,83.0176 L714.5465,81.3217 L714.6419,81.4902 L712.4662,80.3386 L709.994,78.6628 L707.8932,77.6435 L705.7115,76.4813 L703.3413,74.9856 L703.2514,74.7959 L701.0239,73.8587 L698.767,72.8594 L696.5679,71.9821 L694.1441,70.6302 L691.8458,69.5435 L691.9223,69.7343 L689.4555,68.3933 L687.1364,67.4206 L685.033,66.986 L682.5324,65.5608 L680.3523,64.9348 L680.4256,65.1488 L678.1422,64.2546 L675.834,63.288 L673.5818,62.4848 L671.459,62.0594 L669.153,61.0994 L669.1155,60.9718 L667.1047,60.7273 L664.8385,59.6147 L662.8627,59.4892 L660.7234,58.8079 L658.54,57.9769 " fill="none" style="stroke: #616161; stroke-width: 1.0;"/><polygon fill="#616161" points="783.56,236.2269,783.6255,236.2516,784.1265,234.3353,785.0117,232.564,785.7718,230.7455,786.1204,228.7716,787.0385,227.0128,787.0192,226.9955,786.1795,227.7626,785.4373,228.6166,784.7628,229.531,783.8548,230.2372,783.2739,231.2351,783.3968,231.3728,782.2897,230.3253,781.5411,229.68,780.8364,229.0838,779.8771,228.202,779.0516,227.4705,779.0719,227.4809,779.9438,229.2169,780.9079,231.0003,781.8275,232.7608,782.8319,234.565,783.56,236.2269" style="stroke: #616161; stroke-width: 1.0;"/><text fill="#616161" font-family="Comic Sans MS" font-size="13" font-weight="bold" lengthAdjust="spacingAndGlyphs" textLength="52" x="776.5" y="119.3638">推送消息</text><text fill="#616161" font-family="Comic Sans MS" font-size="12" font-style="italic" lengthAdjust="spacingAndGlyphs" textLength="80" x="762.5" y="133.5684">[邮件，微信等]</text><!--MD5=[bb3978a0c71e3490d0ee5b4962efd2b1]
reverse link vova to orderContainer--><path d="M139.29,293.7969 L139.29,294.0771 L149.6787,293.2444 L160.0675,294.0546 L170.4563,294.3298 L180.845,292.8457 L191.2338,293.6933 L201.6225,293.2282 L212.0113,293.2855 L222.4,293.7969 " fill="none" style="stroke: #616161; stroke-width: 1.0;"/><polygon fill="#616161" points="134.13,293.7969,134.1585,293.8609,135.8739,294.4707,137.7562,295.4558,139.5841,296.3186,141.2334,296.7796,143.13,297.7969,143.1117,297.7786,142.2295,296.8963,141.4396,296.1065,140.7139,295.3808,139.767,294.4339,139.13,293.7969,139.2605,293.9274,139.7814,292.8483,140.6834,292.1503,141.6318,291.4987,142.3098,290.5767,143.13,289.7969,143.1392,289.8177,141.3257,290.5871,139.5542,291.4513,137.7624,292.2697,136.0093,293.1753,134.13,293.7969" style="stroke: #616161; stroke-width: 1.0;"/><text fill="#616161" font-family="Comic Sans MS" font-size="13" font-weight="bold" lengthAdjust="spacingAndGlyphs" textLength="52" x="152.25" y="286.8638">查询订单</text><!--MD5=[2618279f12c4376d0295905962e1c5bb]
link goodsContainer to platform--><path d="M533.32,343.0169 L533.3606,343.101 L536.6761,344.507 L540.2293,346.4063 L543.7051,348.1449 L546.9263,349.3553 L550.5,351.2969 L550.4895,351.264 L552.7257,351.8482 L555.0151,352.5982 L557.3414,353.4634 L559.5405,353.9315 L561.9178,354.9559 L561.9735,355.1956 L564.4219,355.2797 L567.0329,356.0635 L569.6638,356.9328 L572.1792,357.3053 L574.7554,357.939 L574.7604,357.9689 L577.5833,358.3981 L580.4289,358.9633 L583.2636,359.4629 L586.1192,360.0879 L588.9066,360.3042 L588.9414,360.6004 L592.0135,360.965 L595.0632,361.1386 L598.1458,361.5918 L601.2299,362.0582 L604.2652,362.1092 L604.2399,361.7897 L607.581,362.6704 L610.8388,362.499 L614.1599,363.1275 L617.4158,362.9322 L620.7252,363.4121 L620.7237,363.3817 L624.2324,363.913 L627.7061,363.7339 L631.2005,363.974 L634.6966,364.2493 L638.1802,364.2707 L638.185,364.4556 L641.849,364.3633 L645.5211,364.5871 L649.1801,364.2996 L652.8587,364.7747 L656.5243,364.7428 L656.5261,364.9864 L660.3511,364.9691 L664.177,365.0727 L667.9988,364.6143 L671.8236,364.5678 L675.6511,364.8864 L675.6493,364.6102 L679.6116,364.8348 L683.5719,364.7483 L687.5351,365.113 L691.4934,364.7072 L695.4545,364.7594 L695.452,364.6069 L699.531,364.7929 L703.5992,364.3272 L707.675,364.3249 L711.7585,364.776 L715.8285,364.4196 L715.8335,364.6132 L724.2438,364.5287 L732.6386,363.8422 L741.0528,363.9098 L749.4629,363.813 L757.863,363.3335 L757.8569,363.1236 L766.4702,363.0424 L775.0816,362.8925 L783.6968,362.8776 L792.2968,362.3377 L800.9054,362.0911 L800.9104,362.2966 L805.226,361.738 L809.5514,361.5762 L813.8911,361.9938 L818.2045,361.3445 L822.5391,361.5561 L822.5433,361.7822 L826.8542,361.5678 L831.1637,361.2768 L835.4765,361.1586 L839.7966,361.4396 L844.1062,361.1556 L844.105,361.0226 L848.3877,361.3771 L852.6617,360.8268 L856.9456,361.3053 L861.2239,361.2045 L865.5007,360.9477 L865.5009,361.0566 L869.7239,360.9772 L873.9476,361.2876 L878.1706,361.2459 L882.3933,361.0569 L886.6163,360.9902 L886.6183,361.1094 L890.7614,361.0024 L894.9139,361.4489 L899.0558,361.2695 L903.2021,361.3475 L907.3469,361.341 L907.3373,361.0707 L911.3884,361.3044 L915.451,361.8635 L919.4973,361.962 L923.5377,361.8954 L927.5862,362.0579 L927.5779,361.915 L931.509,362.189 L935.4253,362.2099 L939.3821,362.9266 L943.3189,363.2989 L947.2282,363.1989 L947.2482,363.432 L951.0423,363.8313 L954.7984,363.7876 L958.5946,364.2114 L962.3643,364.3257 L966.1667,364.822 L966.1816,364.9473 L969.8054,365.3634 L973.4472,365.9309 L977.0318,366.0183 L980.6626,366.4929 L984.2954,366.9848 L984.3266,367.1794 L987.7779,367.7859 L991.1445,367.8642 L994.6095,368.5561 L998.0762,369.2588 L1001.5083,369.7455 L1001.4522,369.4798 L1004.7789,370.5824 L1008.0083,371.2242 L1011.2135,371.7514 L1014.474,372.5404 L1017.6991,373.1618 L1017.7848,373.4741 L1020.6749,373.8536 L1023.7612,374.9487 L1026.7703,375.7621 L1029.7628,376.5152 L1032.7618,377.2916 L1032.7827,377.3506 L1035.5443,378.3194 L1038.2004,378.9906 L1040.9992,380.0644 L1043.7558,381.0192 L1046.59,382.1928 L1046.6019,382.2186 L1049.1039,383.3745 L1051.6151,384.5504 L1054.0287,385.5136 L1056.5677,386.75 L1059.0778,387.9234 L1059.0503,387.8776 L1061.4178,389.4669 L1063.5916,390.7332 L1065.5914,391.709 L1067.8939,393.1899 L1070.1188,394.5412 L1069.9589,394.3406 L1072.0963,396.154 L1074.0826,397.7779 L1075.9625,399.2682 L1077.5887,400.4402 L1079.6069,402.1041 L1079.7592,402.2433 L1080.9291,403.5946 L1082.8043,405.5905 L1084.2062,407.1539 L1085.902,408.9859 L1087.4361,410.6701 L1087.5265,410.727 L1088.8264,412.7073 L1089.5909,414.3503 L1091.2532,416.5588 L1092.3542,418.4137 L1093.5,420.2969 L1093.6416,420.3667 L1095.3608,423.6133 L1096.6275,426.637 L1098.2579,429.8398 L1099.8358,433.0168 L1101.3134,436.1444 L1101.3929,436.1811 L1102.7087,439.166 L1104.3914,442.3204 L1105.2542,445.096 L1107.1239,448.3368 L1108.2915,451.2532 L1108.0359,451.1455 L1109.2899,454.0531 L1110.7473,457.0464 L1111.9622,459.9376 L1112.9685,462.7408 L1114.39,465.719 L1114.5624,465.7831 L1115.4703,468.5196 L1116.7627,471.399 L1117.7728,474.1734 L1118.3431,476.7844 L1119.5648,479.6375 L1119.396,479.5848 L1120.3514,482.3138 L1121.3984,485.0714 L1122.2599,487.771 L1123.058,490.4509 L1123.7716,493.1043 L1123.624,493.0684 L1124.6853,495.7935 L1125.3231,498.4154 L1125.6679,500.9659 L1126.224,503.5679 L1126.9661,506.2152 L1126.7901,506.186 L1127.2996,508.7697 L1127.8815,511.3655 L1128.2189,513.9206 L1128.4933,516.4653 L1129.1041,519.0658 L1129.32,519.0835 L1129.1082,521.5864 L1129.7415,524.1585 L1129.9156,526.6929 L1130.0985,529.2281 L1130.1413,531.7519 L1130.449,531.7545 L1130.0104,534.2744 L1129.9645,536.7976 L1130.3071,539.3241 L1129.7897,541.8433 L1130.0334,544.369 L1129.9299,544.3584 L1129.825,546.903 L1129.5449,549.4297 L1129.0966,551.9391 L1128.9767,554.4822 L1128.7362,557.0129 L1129.0608,557.0772 L1128.5128,559.6222 L1127.464,562.0679 L1127.252,564.6795 L1126.4876,567.1816 L1126.2055,569.7792 L1126.1943,569.776 L1125.5688,572.4128 L1124.8612,575.0256 L1123.6369,577.4868 L1123.3296,580.217 L1122.397,582.7638 L1122.4005,582.7651 L1121.1406,585.3346 L1120.1495,588.0077 L1119.4541,590.795 L1118.3962,593.4424 L1117.2665,596.0621 L1117.2599,596.0589 L1115.6972,598.6757 L1114.9321,601.6705 L1113.2431,604.2274 L1111.8569,606.9278 L1110.7696,609.7699 L1110.7435,609.7554 L1109.4172,612.74 L1107.8457,615.5881 L1106.0388,618.3053 L1104.385,621.1077 L1102.8622,623.983 L1102.926,624.0233 L1101.0597,626.99 L1098.9266,629.788 L1097.4004,632.9696 L1095.5824,635.9668 L1093.5,638.7969 L1093.4293,638.7321 L1090.9314,641.3204 L1088.8654,644.3039 L1086.2232,646.7601 L1083.7884,649.406 L1081.3606,652.0584 L1081.4229,652.1758 L1078.5243,653.2395 L1076.0676,655.1356 L1073.2522,656.3561 L1070.6931,658.0593 L1067.852,659.2314 L1067.8321,659.1376 L1064.9944,660.0239 L1062.0204,660.2678 L1059.1886,661.1821 L1056.3057,661.8552 L1053.3753,662.305 L1053.366,662.1598 L1050.3768,662.6586 L1047.3414,662.4368 L1044.3355,662.6742 L1041.3594,663.3784 L1038.3313,663.2681 L1038.3481,663.5718 L1035.3031,663.6887 L1032.2382,663.4449 L1029.2144,663.9437 L1026.1513,663.732 L1023.1208,664.1099 L1023.1254,664.1353 L1020.1255,664.6512 L1017.1097,665.0788 L1014.184,666.0048 L1011.1751,666.4712 L1008.1448,666.8192 L1008.0855,666.6896 L1005.3742,668.3452 L1002.4256,669.4827 L999.4325,670.523 L996.6292,671.9777 L993.8043,673.3852 L993.645,673.2145 L991.1013,675.8223 L988.2919,678.1455 L985.6398,680.6372 L983.1822,683.3374 L980.5,685.7969 L980.456,685.7665 L979.3793,687.3738 L978.2491,688.9441 L977.2634,690.6142 L975.9,692.0234 L975.0037,693.7552 L975.0657,693.7902 L974.2397,694.4375 L974.1656,695.5089 L973.8042,696.4182 L973.3005,697.2473 L972.622,697.9778 L972.765,698.0508 L972.4773,698.4493 L972.2223,698.8646 L971.7063,699.1468 L971.9157,699.799 L971.5182,700.1415 L971.65,700.2055 L971.3507,700.3306 L971.3036,700.578 L971.1163,700.7574 L971.1806,701.0589 L970.9875,701.2355 L971.2609,701.3648 L970.7932,701.2782 L971.0718,701.5445 L970.7955,701.5484 L970.627,701.6033 L970.7273,701.7853 " fill="none" style="stroke: #616161; stroke-width: 1.0;"/><polygon fill="#616161" points="970.7273,701.7853,970.7732,701.8383,972.1256,700.3911,973.747,699.2544,975.2808,698.0166,976.5266,696.4464,978.1711,695.3363,978.1623,695.3119,977.0588,695.5871,975.9996,695.985,974.9713,696.4684,973.8366,696.6575,972.8509,697.2587,973.0245,697.3214,972.2689,696.1233,972.02,695.1082,971.8329,694.1155,971.2861,692.9928,970.9285,691.9385,970.9513,691.939,970.8776,693.9077,970.9075,695.8785,970.8875,697.8482,970.9627,699.8199,970.7273,701.7853" style="stroke: #616161; stroke-width: 1.0;"/><text fill="#616161" font-family="Comic Sans MS" font-size="13" font-weight="bold" lengthAdjust="spacingAndGlyphs" textLength="52" x="1130.5" y="553.8638">采集商品</text><!--MD5=[4eaceea91830fe256ac13bc86f93b863]
link thisSystem to database--><path d="M893.7205,311.6113 L893.8044,311.6523 L893.9983,312.4363 L894.684,313.461 L895.2096,314.4072 L895.2084,315.0958 L895.9364,316.1411 L895.8433,316.0956 L899.4843,324.1882 L903.5945,332.5104 L908.0309,340.9922 L911.3432,348.924 L916.8931,357.9505 L920.2888,365.9231 L919.5338,365.5539 L924.4034,374.7032 L929.5091,383.9682 L933.2406,392.5608 L937.7766,401.547 L942.0081,410.3843 L946.6117,419.4036 L951.0358,428.3351 L955.8024,437.4341 L960.2561,446.3801 L964.6175,455.2809 L968.4604,463.9281 L973.0622,472.9465 L977.6996,481.9823 L981.21,490.4669 " fill="none" style="stroke: #616161; stroke-width: 1.0;"/><polygon fill="#616161" points="983.56,495.2669,983.63,495.2694,983.3501,493.2934,983.4806,491.3323,983.4775,489.3664,983.0349,487.3844,983.2006,485.4246,983.1761,485.4162,982.6988,486.4485,982.3451,487.5232,982.0771,488.6274,981.5133,489.6301,981.3639,490.775,981.4239,490.9495,980.2257,490.2089,979.2024,489.9779,978.2005,489.8091,977.0744,489.2786,976.0136,488.9383,976.0282,488.9557,977.516,490.1958,979.0704,491.5153,980.5926,492.7965,982.1762,494.1507,983.56,495.2669" style="stroke: #616161; stroke-width: 1.0;"/><text fill="#616161" font-family="Comic Sans MS" font-size="13" font-weight="bold" lengthAdjust="spacingAndGlyphs" textLength="91" x="940.5" y="401.3638">存储持久化数据</text><!--MD5=[4eaceea91830fe256ac13bc86f93b863]
link thisSystem to database--><!--MD5=[901d68e31e1d99c77a4254be6500dc6e]
link spiderContainer to platform--><path d="M688.67,598.8869 L688.8375,599.1115 L696.4643,604.5014 L705.073,611.2082 L713.3619,617.4862 L720.5993,622.3538 L729.2304,629.0907 L737.0769,634.7753 L745.2356,640.8786 L753.6114,647.2731 L761.2392,652.6643 L770.3559,660.0525 L777.5368,664.8443 L786.006,671.364 L794.6323,678.0946 L802.3441,683.5985 L810.5913,689.8205 L818.636,695.7708 L826.9282,702.0532 L835.1009,708.1754 L843.5016,714.6032 L851.6941,720.7518 L859.2837,726.0919 L859.8251,726.818 L867.3569,732.232 L875.3937,738.3234 L883.4542,744.4465 L890.19,748.7929 L899.1758,756.1571 L906.269,760.9829 L914.801,767.7384 L921.8513,772.5066 L930.1161,778.9038 L930.0979,778.8793 L934.7085,782.4452 L938.894,785.4409 L943.3304,788.773 L947.7878,792.1333 L952.0933,795.2899 L952.2038,795.4382 L952.2884,795.4348 L952.562,795.6848 L952.5298,795.5248 L952.9536,795.9764 L953.0743,796.0214 " fill="none" style="stroke: #616161; stroke-width: 1.0;"/><polygon fill="#616161" points="953.0743,796.0214,953.1353,796.0557,951.989,794.2364,951.2007,792.6183,950.2959,790.9347,949.0076,789.0357,948.25,787.4349,948.2244,787.4312,948.2725,788.534,948.4499,789.6556,948.717,790.7903,948.6746,791.8799,949.0658,793.0326,949.0924,793.2153,947.916,792.9879,946.8172,793.2937,945.7279,793.6646,944.5835,793.657,943.4681,793.8484,943.4731,793.8706,945.387,794.2726,947.3237,794.7756,949.2494,795.2299,951.1961,795.7772,953.0743,796.0214" style="stroke: #616161; stroke-width: 1.0;"/><text fill="#616161" font-family="Comic Sans MS" font-size="13" font-weight="bold" lengthAdjust="spacingAndGlyphs" textLength="52" x="797.5" y="659.8638">爬取数据</text><text fill="#616161" font-family="Comic Sans MS" font-size="12" font-style="italic" lengthAdjust="spacingAndGlyphs" textLength="60" x="793.5" y="674.0684">[html/json]</text><!--MD5=[450d941b3609bc406b5185a5256cc333]
link logisticsContainer to logistics--><path d="M679.28,342.4969 L679.3242,342.5792 L680.9917,343.2993 L682.9181,344.5021 L684.7602,345.5477 L686.3251,346.0765 L688.2738,347.3206 L688.2601,347.2889 L690.044,347.9418 L691.8968,348.7546 L693.7975,349.6786 L695.5331,350.2194 L697.5,351.2969 L697.5812,351.5292 L701.0099,352.2913 L704.6756,353.7317 L708.3702,355.2548 L711.8965,356.2965 L715.5114,357.5914 L715.5201,357.6204 L718.9836,358.6197 L722.4867,359.7512 L725.9706,360.8189 L729.4911,362.0084 L732.8926,362.801 L732.9649,363.0903 L736.3243,363.9336 L739.637,364.5902 L743.018,365.52 L746.4022,366.4626 L749.6849,366.9996 L749.6218,366.6853 L752.9933,367.9476 L756.1569,368.175 L759.4785,369.1892 L762.6375,369.3932 L765.9298,370.2612 L765.9252,370.2311 L769.1272,371.0668 L772.222,371.1992 L775.3801,371.7466 L778.5435,372.3288 L781.6686,372.6597 L781.6879,372.8437 L784.7232,372.9799 L787.7915,373.4304 L790.8063,373.3723 L793.901,374.0729 L796.9426,374.2691 L796.9572,374.5123 L799.9246,374.6451 L802.8992,374.8987 L805.8401,374.5912 L808.8057,374.695 L811.7933,375.1632 L811.7885,374.887 L814.6866,375.1876 L817.5793,375.1769 L820.4798,375.6176 L823.3669,375.2878 L826.262,375.4159 L826.2586,375.2635 L829.0899,375.4544 L831.9067,374.9938 L834.7338,374.9965 L837.571,375.4526 L840.3902,375.1013 L840.4015,375.2946 L843.175,375.2656 L845.9134,374.6353 L848.6958,374.7581 L851.4686,374.7168 L854.2191,374.2932 L854.2002,374.0841 L856.9295,374.0053 L859.6526,373.858 L862.3879,373.8452 L865.0758,373.3093 L867.7902,373.0656 L867.8142,373.2698 L870.4323,372.5065 L873.0968,372.1374 L875.8292,372.344 L878.4366,371.4906 L881.1448,371.4924 L881.1762,371.7164 L883.7935,371.2143 L886.4001,370.6365 L889.0308,370.2297 L891.7167,370.2184 L894.3244,369.6475 L894.3038,369.516 L896.9742,369.4988 L899.5047,368.5877 L902.1943,368.693 L904.7943,368.226 L907.3702,367.6048 L907.3884,367.7121 L912.5449,366.7489 L917.7666,366.17 L922.9294,365.2439 L928.0676,364.1726 L933.2262,363.2219 L933.2458,363.3395 L938.3803,362.3074 L943.6055,361.8213 L948.7282,360.7177 L953.893,359.8681 L959.044,358.9351 L959.0044,358.6676 L961.6172,358.3724 L964.2777,358.3994 L966.8707,357.9705 L969.4395,357.3781 L972.0419,357.0125 L972.0237,356.8705 L974.6521,356.5806 L977.2482,356.0393 L979.9328,356.1893 L982.5736,355.9971 L985.1544,355.3357 L985.1782,355.5685 L987.8395,355.3716 L990.4556,354.7325 L993.1194,354.5601 L995.7516,354.0788 L998.4228,353.9787 L998.4318,354.1046 L1001.1238,353.8954 L1003.8266,353.8383 L1006.4949,353.2989 L1009.1911,353.1484 L1011.8885,353.0154 L1011.8956,353.2123 L1014.6385,353.1682 L1017.362,352.5894 L1020.108,352.6318 L1022.8544,352.685 L1025.5929,352.5196 L1025.592,352.2481 L1028.3903,352.6858 L1031.1871,352.6525 L1033.9834,352.5022 L1036.7807,352.6194 L1039.5773,352.5653 L1039.5923,352.8888 L1042.4321,352.5586 L1045.3062,352.9696 L1048.1667,353.0888 L1051.0244,353.1456 L1053.8832,353.2265 L1053.889,353.2889 L1056.8216,353.5468 L1059.7253,353.4905 L1062.6681,353.8594 L1065.5994,354.1027 L1068.5519,354.577 L1068.5558,354.6051 L1071.5719,355.0386 L1074.591,355.4938 L1077.5777,355.7173 L1080.606,356.2384 L1083.6248,356.6909 L1083.6148,356.6384 L1086.7763,357.5329 L1089.8675,358.0575 L1092.8955,358.2495 L1096.0334,359.0199 L1099.1432,359.6419 L1099.083,359.3925 L1102.3743,360.5389 L1105.6088,361.4497 L1108.8032,362.1945 L1111.9021,362.5435 L1115.1485,363.5041 L1115.2066,363.702 L1118.3624,364.1568 L1121.787,365.5284 L1125.0313,366.2848 L1128.3876,367.4232 L1131.6822,368.3514 L1131.7171,368.4524 L1135.1714,369.731 L1138.4191,370.4115 L1142.0132,372.0949 L1145.3908,373.1513 L1148.7856,374.2577 L1148.8439,374.4044 L1152.4512,375.9744 L1155.8722,377.0756 L1159.443,378.5536 L1162.9921,379.9772 L1166.5,381.2969 L1166.538,381.3759 L1169.4872,382.7338 L1172.6117,384.4561 L1175.3446,385.3645 L1178.5584,387.2724 L1181.4369,388.4833 L1181.2746,388.2584 L1183.428,389.8265 L1185.7105,391.5736 L1187.8391,393.1074 L1189.8352,394.4575 L1192.095,396.1731 L1192.2343,396.2931 L1193.8538,398.205 L1195.784,400.3845 L1197.4861,402.3676 L1198.8325,404.0445 L1200.7056,406.1748 L1200.5555,406.0814 L1202.4158,408.9689 L1204.3575,411.9072 L1206.1343,414.7427 L1207.8547,417.5432 L1209.5,420.2969 L1209.3652,420.2266 L1210.7506,422.3459 L1211.7493,424.2636 L1212.4806,426.042 L1213.4048,427.9208 L1214.4988,429.8882 L1214.335,429.8175 L1215.2799,431.8627 L1216.2921,433.937 L1217.0768,435.913 L1217.8028,437.8637 L1218.842,439.9496 L1219.0458,440.0229 L1219.3967,441.9576 L1220.5454,444.1792 L1221.2607,446.245 L1221.9842,448.3137 L1222.5754,450.3348 L1222.8702,450.4233 L1223.1046,452.4159 L1223.7153,454.5215 L1224.698,456.7387 L1224.857,458.7087 L1225.745,460.8975 L1225.6441,460.8722 L1226.3251,463.0287 L1226.8353,465.1425 L1227.1814,467.2151 L1227.8478,469.3679 L1228.3966,471.4914 " fill="none" style="stroke: #616161; stroke-width: 1.0;"/><polygon fill="#616161" points="1228.3966,471.4914,1228.4654,471.5049,1228.6409,469.5319,1229.2195,467.6382,1229.6669,465.7186,1229.6826,463.7143,1230.2958,461.8273,1230.2739,461.8136,1229.5733,462.7095,1228.9833,463.675,1228.4702,464.6887,1227.6921,465.536,1227.2851,466.6165,1227.3833,466.7727,1226.2155,465.8365,1225.3344,465.3564,1224.4883,464.932,1223.4386,464.1837,1222.496,463.6058,1222.5142,463.6194,1223.6676,465.1765,1224.9039,466.7957,1226.1002,468.3849,1227.3728,470.0312,1228.3966,471.4914" style="stroke: #616161; stroke-width: 1.0;"/><text fill="#616161" font-family="Comic Sans MS" font-size="13" font-weight="bold" lengthAdjust="spacingAndGlyphs" textLength="52" x="1204.5" y="394.3638">查询物流</text><text fill="#616161" font-family="Comic Sans MS" font-size="12" font-style="italic" lengthAdjust="spacingAndGlyphs" textLength="44" x="1208.5" y="408.5684">[HTTPS]</text><!--MD5=[73190bb9e3a41acf2122f724bab12ce8]
link ali1688 to taobao--><!--MD5=[524063817bfc0dfce429cb8a3a408c8d]
link ali1688 to pdd--><text fill="#FF0000" font-family="Comic Sans MS" font-size="14" lengthAdjust="spacingAndGlyphs" textLength="56" x="531.25" y="985.792">Warning:</text><text fill="#222222" font-family="Comic Sans MS" font-size="14" lengthAdjust="spacingAndGlyphs" textLength="288" x="591.25" y="985.792">Created for discussion, needs to be validated</text><!--MD5=[5350ee69513ecd66ae849b6098657559]
@startuml container-diagram
!include https://unpkg.com/plantuml-style-c4@latest/c4_component.puml
' uncomment the following line and comment the first to use locally
'!include c4_component.puml

'LAYOUT_WITH_LEGEND()
LAYOUT_AS_SKETCH()

title 容器图

Person(user, "用户")

System_Boundary(thisSystem, "外贸系统"){
    Container(orderContainer, "订单服务", "Java, springmvc", "未发货订单自动通知，订单处理等")
    Container(goodsContainer, "商品服务", "Java, springmvc", "爬取商品")
    Container(logisticsContainer,"物流服务","Java, springmvc", "物流管理")
    Container(spiderContainer, "爬虫服务", "Python", "爬取电商平台的产品等")
    Container(notifyRobotContainer, "通知机器人", "Python", "通知推送机器人，推送消息到用户")

    Rel(goodsContainer, spiderContainer, "获取爬虫数据", "HTTPS")
}


System_Boundary(storage, "存储"){
    ContainerDb(database, "数据库", "SQL Database", "存储系统中的信息")
}


System_Boundary(logistics, "物流"){
    System_Ext(yw56, "燕文物流")
}

System_Ext(vova, "VOVA电商平台")

System_Boundary(platform, "商品采集平台"){
    System_Ext(ali1688, "1688电商平台")
    System_Ext(taobao, "淘宝电商平台")
    System_Ext(pdd, "拼多多电商平台")
}


Rel(user, orderContainer, "订单处理", "HTTPS")
Rel(user, logisticsContainer, "物流查询，成本预估","HTTPS")
Rel_Back(notifyRobotContainer, user, "推送消息", "邮件，微信等")


Rel_L(orderContainer, vova, "查询订单")
Rel(goodsContainer, platform, "采集商品")
Rel_D(thisSystem, database, "存储持久化数据")
Rel(spiderContainer, platform, "爬取数据", "html/json")
Rel(logisticsContainer, logistics, "查询物流", "HTTPS")

Lay_D(thisSystem, database)


@enduml

@startuml container-diagram




































skinparam wrapWidth 200
skinparam maxMessageSize 150
skinparam ComponentStyle uml2
skinparam Shadowing false

skinparam Default {
    FontName "'Input Mono','Microsoft YaHei Mono',Menlo, Monaco, 'Courier New', monospace"
    FontColor #222222
    FontSize  14
    FontStyle plain
    Shadowing false
    TextAlignment center
    BackgroundColor #E3F2FD
    BorderColor #424242
}

skinparam Note {
    BackgroundColor #90A4AE
    BorderColor #90A4AE
    BorderThickness 1
    FontColor White
    Shadowing false
    TextAlignment left
}

skinparam Note<<quit>> {

    BackgroundColor #F9A825
    BorderColor #F9A825
}

skinparam Sequence {
    ActorBorderThickness 1
    LifeLineBorderColor GREEN
    ParticipantBorderThickness 0
    Shadowing false


    GroupBorderThickness 1
    GroupBorderColor #1565C0
    GroupBackgroundColor #BBDEFB
}

skinparam Activity {

    StartColor #37A77C
    EndColor #F6363F
    AttributeFontColor white
    AttributeFontSize  15
    AttributeFontname  Droid Sans Mono

    BackgroundColor #BBDEFB
    BorderColor #90CAF9
    BorderThickness 1

    ArrowThickness 1


    BarColor   #0D47A1


    DiamondBackgroundColor   #FFE0B2
    DiamondBorderColor    #FFCC80


}

skinparam Class {
    BackgroundColor #E3F2FD
    BorderColor #64B5F6
    BorderThickness 1


    StereotypeFontColor #589DF6
    StereotypeFontSize 14
}



skinparam Interface {
    BackgroundColor #E3F2FD
    BorderColor #424242
    FontSize 14


    StereotypeFontColor #589DF6
    StereotypeFontSize 1
}



skinparam Participant {
    BackgroundColor #1565C0
    BorderColor #1565C0
    FontColor White
    Shadowing false
}

skinparam Actor {
    BackgroundColor #1565C0
    BorderColor #1565C0
    Shadowing false
}

skinparam UseCase {
    BackgroundColor #64B5F6
    BorderColor #64B5F6
    Shadowing false
    ArrowThickness 1
    ArrowColor #1565C0

    ActorBackgroundColor #1565C0
    ActorBorderColor #0D47A1
    ActorShadowing false
 
}


skinparam State {
    FontSize           17

    AttributeFontSize  14
    
    BackgroundColor    #BBDEFB
    BorderColor        #90CAF9
    StartColor #37A77C
    EndColor #F6363F
}

skinparam Partition {
    BorderColor #424242
    BorderStyle dashed

    BorderThickness 1
}

skinparam rectangle {
    StereotypeFontSize 12
    shadowing false
}

skinparam database {
    StereotypeFontSize 12
    shadowing false
}

skinparam Queue {
    BackgroundColor #E3F2FD
    BorderColor #424242
}
skinparam Agent {
    BackgroundColor #E3F2FD
    BorderColor #424242
}
skinparam Artifact {
    BackgroundColor #E3F2FD
    BorderColor #424242
}

skinparam Boundary {
    BackgroundColor #E3F2FD
    BorderColor #424242
}
skinparam Card {
    BackgroundColor #E3F2FD
    BorderColor #424242
}

skinparam Cloud {
    BackgroundColor #E3F2FD
    BorderColor #424242
}

skinparam Component {
    BackgroundColor #E3F2FD
    BorderColor #424242
}
skinparam Control {
    BackgroundColor #E3F2FD
    BorderColor #424242
}
skinparam Database {
    BackgroundColor #E3F2FD
    BorderColor #424242
}

skinparam Entity {
    BackgroundColor #E3F2FD
    BorderColor #424242
}
skinparam File {
    BackgroundColor #E3F2FD
    BorderColor #424242
}
skinparam Folder {
    BackgroundColor #E3F2FD
    BorderColor #424242
   
}
skinparam Frame {
    BackgroundColor #E3F2FD
    BorderColor #424242
}
skinparam Node {
    BackgroundColor #E3F2FD
    BorderColor #424242
}


skinparam Package {
    BackgroundColor #E3F2FD
    BorderColor #424242
}
skinparam Stack {
    BackgroundColor #E3F2FD
    BorderColor #424242
}

skinparam Rectangle {
    BackgroundColor #E3F2FD
    BorderColor #424242
}

skinparam Storage {
    BackgroundColor #E3F2FD
    BorderColor #424242
}

skinparam rectangle<<usercase>> {
    Shadowing false
    StereotypeFontSize 0
    FontColor #424242
    BorderColor #424242
    BorderStyle dashed
    BackgroundColor White
}








































skinparam rectangle {
    StereotypeFontSize 12
    shadowing false
}

skinparam database {
    StereotypeFontSize 12
    shadowing false
}

skinparam Arrow {
    Color #616161
    FontColor #616161
    FontSize 12
}

skinparam rectangle<<boundary>> {
    Shadowing false
    StereotypeFontSize 0
    FontColor #424242
    BorderColor #424242
    BorderStyle dashed
    BackgroundColor White
}





















skinparam actor<<person>> {
  BorderColor #0D47A1
  BackgroundColor #1565C0
}

skinparam actor<<internal_person>> {
  BorderColor #424242
  BackgroundColor #616161
}




skinparam rectangle<<person>> {
    StereotypeFontColor #FFFFFF
    FontColor #FFFFFF
    BackgroundColor #1565C0
    BorderColor #0D47A1
}

skinparam rectangle<<external_person>> {
    StereotypeFontColor #FFFFFF
    FontColor #FFFFFF
    BackgroundColor #616161
    BorderColor #424242
}

skinparam rectangle<<system>> {
    StereotypeFontColor #FFFFFF
    FontColor #FFFFFF
    BackgroundColor #1976D2
    BorderColor #1565C0
}

skinparam rectangle<<external_system>> {
    StereotypeFontColor #FFFFFF
    FontColor #FFFFFF
    BackgroundColor #757575
    BorderColor #616161
}

skinparam database<<system>> {
    StereotypeFontColor #FFFFFF
    FontColor #FFFFFF
    BackgroundColor #1976D2
    BorderColor #1565C0
}

skinparam database<<external_system>> {
    StereotypeFontColor #FFFFFF
    FontColor #FFFFFF
    BackgroundColor #757575
    BorderColor #616161
}




















skinparam rectangle<<container>> {
    StereotypeFontColor #FFFFFF
    FontColor #FFFFFF
    BackgroundColor #1E88E5
    BorderColor #1E88E5
}

skinparam database<<container>> {
    StereotypeFontColor #FFFFFF
    FontColor #FFFFFF
    BackgroundColor #1E88E5
    BorderColor #1E88E5
}












skinparam rectangle<<component>> {
    StereotypeFontColor #FFFFFF
    FontColor #222222
    BackgroundColor #90CAF9
    BorderColor #64B5F6
}

skinparam database<<component>> {
    StereotypeFontColor #FFFFFF
    FontColor #222222
    BackgroundColor #90CAF9
    BorderColor #64B5F6
}









skinparam backgroundColor #EEEBDC
skinparam handwritten true
skinparam defaultFontName "Comic Sans MS"
center footer <font color=red>Warning:</font> Created for discussion, needs to be validated

title 容器图

rectangle "==用户" <<person>> as user

rectangle "==外贸系统\n<size:12>[System]</size>" <<boundary>> as thisSystem{
    rectangle "==订单服务\n//<size:12>[Java, springmvc]</size>//\n\n 未发货订单自动通知，订单处理等" <<container>> as orderContainer
    rectangle "==商品服务\n//<size:12>[Java, springmvc]</size>//\n\n 爬取商品" <<container>> as goodsContainer
    rectangle "==物流服务\n//<size:12>[Java, springmvc]</size>//\n\n 物流管理" <<container>> as logisticsContainer
    rectangle "==爬虫服务\n//<size:12>[Python]</size>//\n\n 爬取电商平台的产品等" <<container>> as spiderContainer
    rectangle "==通知机器人\n//<size:12>[Python]</size>//\n\n 通知推送机器人，推送消息到用户" <<container>> as notifyRobotContainer

    goodsContainer - -> spiderContainer : "===获取爬虫数据\n//<size:12>[HTTPS]</size>//"
}


rectangle "==存储\n<size:12>[System]</size>" <<boundary>> as storage{
    database "==数据库\n//<size:12>[SQL Database]</size>//\n\n 存储系统中的信息" <<container>> as database
}


rectangle "==物流\n<size:12>[System]</size>" <<boundary>> as logistics{
    rectangle "==燕文物流" <<external_system>> as yw56
}

rectangle "==VOVA电商平台" <<external_system>> as vova

rectangle "==商品采集平台\n<size:12>[System]</size>" <<boundary>> as platform{
    rectangle "==1688电商平台" <<external_system>> as ali1688
    rectangle "==淘宝电商平台" <<external_system>> as taobao
    rectangle "==拼多多电商平台" <<external_system>> as pdd
}


user - -> orderContainer : "===订单处理\n//<size:12>[HTTPS]</size>//"
user - -> logisticsContainer : "===物流查询，成本预估\n//<size:12>[HTTPS]</size>//"
notifyRobotContainer <- - user : "===推送消息\n//<size:12>[邮件，微信等]</size>//"


orderContainer -LEFT-> vova : "===查询订单"
goodsContainer - -> platform : "===采集商品"
thisSystem -DOWN-> database : "===存储持久化数据"
spiderContainer - -> platform : "===爬取数据\n//<size:12>[html/json]</size>//"
logisticsContainer - -> logistics : "===查询物流\n//<size:12>[HTTPS]</size>//"

thisSystem -[hidden]D- database


@enduml

PlantUML version 1.2020.18(Thu Oct 01 03:40:44 CST 2020)
(GPL source distribution)
Java Runtime: OpenJDK Runtime Environment
JVM: OpenJDK 64-Bit Server VM
Default Encoding: UTF-8
Language: zh
Country: CN
--></g></svg>